<?xml version="1.0" encoding="iso-8859-1"?>
<!-- Generator: Adobe Illustrator 19.0.0, SVG Export Plug-In . SVG Version: 6.00 Build 0)  -->
<svg version="1.1" id="Layer_1" xmlns="http://www.w3.org/2000/svg" xmlns:xlink="http://www.w3.org/1999/xlink" x="0px" y="0px"
	 viewBox="0 0 482.211 482.211" style="enable-background:new 0 0 482.211 482.211;" xml:space="preserve">
<path style="fill:#DC8744;" d="M307.802,0.165H34.334C15.059,0.165,0,15.223,0,34.499v413.214c0,19.275,15.059,34.334,34.334,34.334
	V68.833l0,0h295.755V21.849C330.089,9.802,319.849,0.165,307.802,0.165z"/>
<path style="fill:#FFFFFF;" d="M292.141,12.212H40.358c-15.661,0-28.311,12.649-28.311,28.311s12.649,28.311,28.311,28.311h269.854
	V30.282C310.212,20.042,301.779,12.212,292.141,12.212z"/>
<rect x="34.334" y="68.833" style="fill:#F6C358;" width="23.492" height="413.214"/>
<path style="fill:#FCD462;" d="M344.546,68.833H57.826v413.214h286.72c12.047,0,21.685-9.638,21.685-21.685V90.517
	C366.231,78.47,356.593,68.833,344.546,68.833z"/>
<g>
	<rect x="130.108" y="372.419" style="fill:#DC8744;" width="163.84" height="9.035"/>
	<rect x="130.108" y="410.367" style="fill:#DC8744;" width="163.84" height="9.035"/>
</g>
<rect x="326.651" y="94.189" transform="matrix(-0.7838 -0.621 0.621 -0.7838 453.1754 625.032)" style="fill:#E56353;" width="17.468" height="278.887"/>
<rect x="340.475" y="105.123" transform="matrix(-0.7838 -0.621 0.621 -0.7838 471.0444 653.1199)" style="fill:#D15241;" width="17.468" height="278.887"/>
<rect x="354.317" y="116.056" transform="matrix(-0.7838 -0.621 0.621 -0.7838 488.9455 681.219)" style="fill:#CE412D;" width="17.468" height="278.887"/>
<rect x="411.501" y="129.789" transform="matrix(-0.7838 -0.621 0.621 -0.7838 698.3076 508.7075)" style="fill:#44C4A1;" width="52.404" height="6.023"/>
<path style="fill:#64798A;" d="M447.548,86.903l9.638,7.228l-24.094,30.72l-14.456-10.842l20.48-25.901
	C441.525,85.699,445.139,85.096,447.548,86.903z"/>
<rect x="432.195" y="106.95" transform="matrix(-0.621 0.7838 -0.7838 -0.621 822.51 -166.3412)" style="fill:#3A556A;" width="38.55" height="17.468"/>
<path style="fill:#2F4859;" d="M470.438,105.576l9.638,7.228c2.409,1.807,3.012,5.421,0.602,7.831l-20.48,25.901l-13.854-10.842
	L470.438,105.576z"/>
<path style="fill:#F6C358;" d="M283.106,370.612l-31.322,13.252c-0.602-3.614-2.409-7.228-5.421-9.638s-7.228-3.614-10.842-3.012
	l6.024-33.129L283.106,370.612z"/>
<path style="fill:#64798A;" d="M246.362,373.623c3.012,2.409,4.819,6.024,5.421,9.638l-15.059,6.626
	c-1.807,0.602-4.216-0.602-3.614-3.012l3.012-16.263C239.736,370.612,243.351,371.214,246.362,373.623z"/>
<g>
</g>
<g>
</g>
<g>
</g>
<g>
</g>
<g>
</g>
<g>
</g>
<g>
</g>
<g>
</g>
<g>
</g>
<g>
</g>
<g>
</g>
<g>
</g>
<g>
</g>
<g>
</g>
<g>
</g>
</svg>
