<?xml version="1.0" encoding="iso-8859-1"?>
<!-- Generator: Adobe Illustrator 19.0.0, SVG Export Plug-In . SVG Version: 6.00 Build 0)  -->
<svg version="1.1" id="Layer_1" xmlns="http://www.w3.org/2000/svg" xmlns:xlink="http://www.w3.org/1999/xlink" x="0px" y="0px"
	 viewBox="0 0 481.882 481.882" style="enable-background:new 0 0 481.882 481.882;" xml:space="preserve">
<path style="fill:#3A556A;" d="M470.438,0H11.445C4.819,0,0,5.421,0,11.445v68.668h481.882V11.445
	C481.882,5.421,476.461,0,470.438,0z"/>
<rect x="18.673" y="27.106" style="fill:#EBF0F3;" width="301.779" height="26.504"/>
<circle style="fill:#FCD462;" cx="358.4" cy="40.358" r="13.252"/>
<circle style="fill:#44C4A1;" cx="405.384" cy="40.358" r="13.252"/>
<circle style="fill:#E56353;" cx="452.367" cy="40.358" r="13.252"/>
<path style="fill:#64798A;" d="M0,80.113v389.722c0,6.626,5.421,11.445,11.445,11.445h110.231V80.113H0z"/>
<path style="fill:#EBF0F3;" d="M122.278,80.113v401.769h348.16c6.626,0,11.445-5.421,11.445-11.445V80.113H122.278z"/>
<rect x="145.167" y="113.845" style="fill:#44C4A1;" width="307.802" height="110.231"/>
<g>
	<rect x="145.167" y="254.193" style="fill:#D5D6DB;" width="87.944" height="87.944"/>
	<rect x="254.795" y="254.193" style="fill:#D5D6DB;" width="87.944" height="87.944"/>
	<rect x="365.026" y="254.193" style="fill:#D5D6DB;" width="87.944" height="87.944"/>
	<rect x="145.167" y="361.412" style="fill:#D5D6DB;" width="87.944" height="87.944"/>
	<rect x="254.795" y="361.412" style="fill:#D5D6DB;" width="87.944" height="87.944"/>
	<rect x="365.026" y="361.412" style="fill:#D5D6DB;" width="87.944" height="87.944"/>
	<rect x="16.264" y="106.014" style="fill:#D5D6DB;" width="96.376" height="24.696"/>
	<rect x="16.264" y="137.336" style="fill:#D5D6DB;" width="96.376" height="24.696"/>
	<rect x="16.264" y="168.659" style="fill:#D5D6DB;" width="96.376" height="24.696"/>
	<rect x="16.264" y="200.584" style="fill:#D5D6DB;" width="96.376" height="24.696"/>
	<rect x="16.264" y="231.906" style="fill:#D5D6DB;" width="96.376" height="24.696"/>
	<rect x="16.264" y="263.228" style="fill:#D5D6DB;" width="96.376" height="24.696"/>
</g>
<g>
</g>
<g>
</g>
<g>
</g>
<g>
</g>
<g>
</g>
<g>
</g>
<g>
</g>
<g>
</g>
<g>
</g>
<g>
</g>
<g>
</g>
<g>
</g>
<g>
</g>
<g>
</g>
<g>
</g>
</svg>
