<?xml version="1.0" encoding="iso-8859-1"?>
<!-- Generator: Adobe Illustrator 19.0.0, SVG Export Plug-In . SVG Version: 6.00 Build 0)  -->
<svg version="1.1" id="Layer_1" xmlns="http://www.w3.org/2000/svg" xmlns:xlink="http://www.w3.org/1999/xlink" x="0px" y="0px"
	 viewBox="0 0 481.882 481.882" style="enable-background:new 0 0 481.882 481.882;" xml:space="preserve">
<path style="fill:#3A556A;" d="M470.438,0.301H11.445C4.819,0.301,0,5.722,0,11.746v68.668h481.882V11.746
	C481.882,5.722,476.461,0.301,470.438,0.301z"/>
<rect x="18.673" y="27.407" style="fill:#EBF0F3;" width="301.779" height="26.504"/>
<circle style="fill:#FCD462;" cx="358.4" cy="40.659" r="13.252"/>
<circle style="fill:#44C4A1;" cx="405.384" cy="40.659" r="13.252"/>
<circle style="fill:#E56353;" cx="452.367" cy="40.659" r="13.252"/>
<path style="fill:#EBF0F3;" d="M481.882,80.414v389.722c0,6.626-5.421,11.445-11.445,11.445H11.445
	C4.819,481.581,0,476.16,0,470.136V80.414H481.882z"/>
<path style="fill:#FFFFFF;" d="M481.882,80.414v377.675c0,6.626-5.421,11.445-11.445,11.445H11.445
	C4.819,469.534,0,464.113,0,458.089V80.414H481.882z"/>
<g>
	<rect x="235.52" y="152.094" style="fill:#3A556A;" width="17.468" height="156.009"/>
	<polygon style="fill:#3A556A;" points="425.864,385.807 408.395,385.807 408.395,355.087 323.464,355.087 323.464,385.807 
		305.393,385.807 305.393,337.619 425.864,337.619 	"/>
	<polygon style="fill:#3A556A;" points="177.092,388.216 159.624,388.216 159.624,355.087 74.089,355.087 74.089,388.216 
		56.621,388.216 56.621,337.619 177.092,337.619 	"/>
	<polygon style="fill:#3A556A;" points="374.664,353.882 357.195,353.882 357.195,321.355 125.289,321.355 125.289,353.882 
		107.821,353.882 107.821,303.285 374.664,303.285 	"/>
</g>
<rect x="159.624" y="124.386" style="fill:#44C4A1;" width="169.261" height="61.44"/>
<rect x="159.624" y="214.136" style="fill:#FCD462;" width="169.261" height="61.44"/>
<rect x="28.311" y="376.772" style="fill:#E56353;" width="72.885" height="61.44"/>
<rect x="131.313" y="376.772" style="fill:#27A2DB;" width="72.885" height="61.44"/>
<rect x="278.287" y="376.772" style="fill:#44C4A1;" width="72.885" height="61.44"/>
<rect x="380.687" y="376.772" style="fill:#64798A;" width="72.885" height="61.44"/>
<g>
</g>
<g>
</g>
<g>
</g>
<g>
</g>
<g>
</g>
<g>
</g>
<g>
</g>
<g>
</g>
<g>
</g>
<g>
</g>
<g>
</g>
<g>
</g>
<g>
</g>
<g>
</g>
<g>
</g>
</svg>
