<?xml version="1.0" encoding="iso-8859-1"?>
<!-- Generator: Adobe Illustrator 19.0.0, SVG Export Plug-In . SVG Version: 6.00 Build 0)  -->
<svg version="1.1" id="Layer_1" xmlns="http://www.w3.org/2000/svg" xmlns:xlink="http://www.w3.org/1999/xlink" x="0px" y="0px"
	 viewBox="0 0 483.196 483.196" style="enable-background:new 0 0 483.196 483.196;" xml:space="preserve">
<path style="fill:#64798A;" d="M335,181.298c-12,0-22.9,5.4-30.1,13.8l0,0c-6,7.2-10.2,16.9-10.2,27.1c0,10.2,4.2,19.9,10.2,27.1
	v0.1c7.2,8.4,18.1,13.9,30.1,13.9c22.3,0,41-18.1,41-41C375.9,199.898,357.9,181.298,335,181.298z"/>
<path style="fill:#3A556A;" d="M294.6,222.198c0,10.2,4.2,19.9,10.2,27.1v-54.2C298.8,202.298,294.6,211.898,294.6,222.198z"/>
<path style="fill:#64798A;" d="M480.1,270.998l-21.1-16.9c2.4-10.2,4.2-21.1,4.2-31.9s-1.2-21.7-4.2-31.9l19.9-17.5
	c3-3,4.2-7.2,1.8-11.4l-20.5-35.5c-2.4-3.6-6.6-5.4-10.8-4.2l-24.7,9c-15.1-15.1-34.3-25.9-55.4-31.9l-5.4-25.9
	c-0.6-4.2-4.8-7.2-9-7.2h-41c-4.2,0-7.8,3-9,7.2l-1.2,4.8l-4.2,21.1c-21.1,6-39.8,16.9-55.4,31.9l-24.7-8.4
	c-4.2-1.2-8.4,0.6-10.8,4.2l-20.6,35.5c-2.4,3.6-1.2,8.4,1.8,11.4l19.9,17.5c-2.4,10.2-4.2,21.1-4.2,31.9s1.2,21.7,4.2,31.9
	l-19.9,17.5c-3,3-4.2,7.2-1.8,11.4l20.5,35.5c2.4,3.6,6.6,5.4,10.8,4.2l25.3-8.4c15.1,15.1,34.3,25.9,55.4,31.9l4.2,21.1v-1.2
	l1.2,4.8c0.6,4.2,4.8,7.2,9,7.2h41c4.2,0,7.8-3,9-7.2l5.4-25.9c21.1-6,39.8-16.9,55.4-31.9l25.3,8.4c4.2,1.2,8.4-0.6,10.8-4.2
	l20.5-35.5C484.4,278.798,483.1,273.998,480.1,270.998z M334.4,301.098c-10.8,0-21.1-2.4-30.1-6c-28.9-12-49.4-40.3-49.4-72.9
	c0-33.1,20.4-60.8,49.3-72.9l0,0c9.6-3.6,19.4-6,30.2-6c43.4,0,78.9,35.5,78.9,78.9S377.7,301.098,334.4,301.098z"/>
<path style="fill:#3A556A;" d="M254.9,222.198c0-33.1,19.9-60.8,48.8-72.9v-71.6l-4.2,21.1c-21.1,6-39.8,16.9-55.4,31.9l-24.7-8.4
	c-4.2-1.2-8.4,0.6-10.8,4.2l-20.6,35.5c-2.4,3.6-1.2,8.4,1.8,11.4l19.9,17.5c-2.4,10.2-4.2,21.1-4.2,31.9s1.2,21.7,4.2,31.9
	l-19.9,17.5c-3,3-4.2,7.2-1.8,11.4l20.5,35.5c2.4,3.6,6.6,5.4,10.8,4.2l25.3-8.4c15.1,15.1,34.3,25.9,55.4,31.9l4.2,21.1v-72.9
	C275.3,283.098,254.9,254.798,254.9,222.198z"/>
<path style="fill:#27A2DB;" d="M271.1,0.598H15.7c-8.4,0-15.7,7.2-15.7,15.7v450.6c0,8.4,7.2,15.7,15.7,15.7h255.4
	c8.4,0,15.7-7.2,15.7-15.7v-450.7C286.8,7.798,280.2,0.598,271.1,0.598z"/>
<rect x="35" y="35.498" style="fill:#EBF0F3;" width="216.8" height="372.9"/>
<rect x="35" y="358.998" style="fill:#1C75A1;" width="216.8" height="50"/>
<circle style="fill:#EBF0F3;" cx="143.4" cy="447.498" r="19.9"/>
<g>
	<path style="fill:#FFFFFF;" d="M74.8,367.998H51.9c-2.4,0-4.8,2.4-4.8,4.8v22.9c0,2.4,2.4,4.8,4.8,4.8h22.9c2.4,0,4.8-2.4,4.8-4.8
		v-22.9C79.6,370.398,77.8,367.998,74.8,367.998z"/>
	<path style="fill:#FFFFFF;" d="M128.4,367.998h-22.9c-2.4,0-4.8,2.4-4.8,4.8v22.9c0,2.4,2.4,4.8,4.8,4.8h22.9
		c2.4,0,4.8-2.4,4.8-4.8v-22.9C133.2,370.398,130.8,367.998,128.4,367.998z"/>
	<path style="fill:#FFFFFF;" d="M181.4,367.998h-22.9c-2.4,0-4.8,2.4-4.8,4.8v22.9c0,2.4,2.4,4.8,4.8,4.8h22.9
		c2.4,0,4.8-2.4,4.8-4.8v-22.9C186.2,370.398,184.4,367.998,181.4,367.998z"/>
	<path style="fill:#FFFFFF;" d="M235,367.998h-22.9c-2.4,0-4.8,2.4-4.8,4.8v22.9c0,2.4,2.4,4.8,4.8,4.8H235c2.4,0,4.8-2.4,4.8-4.8
		v-22.9C239.8,370.398,237.4,367.998,235,367.998z"/>
</g>
<path style="fill:#FCD462;" d="M82.6,305.298H54.3c-3,0-6,2.4-6,6v28.3c0,3,2.4,6,6,6h28.3c3,0,6-2.4,6-6v-28.3
	C88,308.398,85.6,305.298,82.6,305.298z"/>
<path style="fill:#27A2DB;" d="M132.6,305.298h-28.3c-3,0-6,2.4-6,6v28.3c0,3,2.4,6,6,6h28.3c3,0,6-2.4,6-6v-28.3
	C138.6,308.398,135.6,305.298,132.6,305.298z"/>
<path style="fill:#44C4A1;" d="M182.6,305.298h-28.3c-3,0-6,2.4-6,6v28.3c0,3,2.4,6,6,6h28.3c3,0,6-2.4,6-6v-28.3
	C188.6,308.398,186.2,305.298,182.6,305.298z"/>
<g>
	<path style="fill:#E56353;" d="M233.2,305.298h-28.3c-3,0-6,2.4-6,6v28.3c0,3,2.4,6,6,6h28.3c3,0,6-2.4,6-6v-28.3
		C238.6,308.398,236.2,305.298,233.2,305.298z"/>
	<path style="fill:#E56353;" d="M82.6,249.298H54.3c-3,0-6,2.4-6,6v28.3c0,3,2.4,6,6,6h28.3c3,0,6-2.4,6-6v-28.3
		C88,252.298,85.6,249.298,82.6,249.298z"/>
</g>
<path style="fill:#44C4A1;" d="M132.6,250.498h-28.3c-3,0-6,2.4-6,6v28.3c0,3,2.4,6,6,6h28.3c3,0,6-2.4,6-6v-28.3
	C138.6,252.898,135.6,250.498,132.6,250.498z"/>
<path style="fill:#FCD462;" d="M182.6,249.298h-28.3c-3,0-6,2.4-6,6v28.3c0,3,2.4,6,6,6h28.3c3,0,6-2.4,6-6v-28.3
	C188.6,252.298,186.2,249.298,182.6,249.298z"/>
<path style="fill:#27A2DB;" d="M233.2,249.298h-28.3c-3,0-6,2.4-6,6v28.3c0,3,2.4,6,6,6h28.3c3,0,6-2.4,6-6v-28.3
	C238.6,252.298,236.2,249.298,233.2,249.298z"/>
<rect x="47" y="63.198" style="fill:#FFFFFF;" width="156" height="30.7"/>
<rect x="203" y="63.198" style="fill:#64798A;" width="36.7" height="30.7"/>
<g>
</g>
<g>
</g>
<g>
</g>
<g>
</g>
<g>
</g>
<g>
</g>
<g>
</g>
<g>
</g>
<g>
</g>
<g>
</g>
<g>
</g>
<g>
</g>
<g>
</g>
<g>
</g>
<g>
</g>
</svg>
